<?xml version="1.0" encoding="utf-8"?>
<!-- Generator: Adobe Illustrator 21.0.2, SVG Export Plug-In . SVG Version: 6.00 Build 0)  -->
<svg version="1.1" xmlns="http://www.w3.org/2000/svg" xmlns:xlink="http://www.w3.org/1999/xlink" x="0px" y="0px"
	 viewBox="0 0 267.4 124" style="enable-background:new 0 0 267.4 124;" xml:space="preserve">
<style type="text/css">
	.st0{display:none;}
	.st1{fill:#6B6D6F;}
	
		.st2{fill:url(#SVGID_1_);stroke:url(#SVGID_2_);stroke-width:0.75;stroke-linecap:round;stroke-linejoin:round;stroke-miterlimit:10;}
	.st3{fill:#216A7D;}
	
		.st4{fill:url(#SVGID_3_);stroke:url(#SVGID_4_);stroke-width:0.75;stroke-linecap:round;stroke-linejoin:round;stroke-miterlimit:10;}
	
		.st5{fill:url(#SVGID_5_);stroke:url(#SVGID_6_);stroke-width:0.75;stroke-linecap:round;stroke-linejoin:round;stroke-miterlimit:10;}
	
		.st6{fill:url(#SVGID_7_);stroke:url(#SVGID_8_);stroke-width:0.75;stroke-linecap:round;stroke-linejoin:round;stroke-miterlimit:10;}
	.st7{fill:#3291AB;}
	
		.st8{fill:url(#SVGID_9_);stroke:url(#SVGID_10_);stroke-width:0.75;stroke-linecap:round;stroke-linejoin:round;stroke-miterlimit:10;}
	.st9{fill:url(#SVGID_11_);}
	.st10{fill:#646569;}
	.st11{fill:#99999A;}
	.st12{fill:#FFFFFF;}
	.st13{fill:#434343;}
	.st14{fill:#ABABAB;}
	
		.st15{fill:url(#SVGID_12_);stroke:url(#SVGID_13_);stroke-width:0.75;stroke-linecap:round;stroke-linejoin:round;stroke-miterlimit:10;}
	
		.st16{fill:url(#SVGID_14_);stroke:url(#SVGID_15_);stroke-width:0.75;stroke-linecap:round;stroke-linejoin:round;stroke-miterlimit:10;}
	
		.st17{fill:url(#SVGID_16_);stroke:url(#SVGID_17_);stroke-width:0.75;stroke-linecap:round;stroke-linejoin:round;stroke-miterlimit:10;}
	
		.st18{fill:url(#SVGID_18_);stroke:url(#SVGID_19_);stroke-width:0.75;stroke-linecap:round;stroke-linejoin:round;stroke-miterlimit:10;}
	
		.st19{fill:url(#SVGID_20_);stroke:url(#SVGID_21_);stroke-width:0.75;stroke-linecap:round;stroke-linejoin:round;stroke-miterlimit:10;}
	.st20{fill:url(#SVGID_22_);}
	.st21{fill:#6B6E6F;}
	.st22{fill:#6C6E6F;}
	.st23{fill:none;}
</style>
<g id="Layer_1" class="st0">
</g>
<g id="Layer_2">
	<g>
		
			<radialGradient id="SVGID_1_" cx="8.2673" cy="49.532" r="3.3723" gradientTransform="matrix(0.8466 0 0 1 6.2802 0)" gradientUnits="userSpaceOnUse">
			<stop  offset="0" style="stop-color:#000000;stop-opacity:0"/>
			<stop  offset="0.2153" style="stop-color:#000000;stop-opacity:0.6044"/>
			<stop  offset="0.5" style="stop-color:#000000;stop-opacity:0.95"/>
			<stop  offset="0.8861" style="stop-color:#216A7D;stop-opacity:0.65"/>
		</radialGradient>
		
			<radialGradient id="SVGID_2_" cx="8.2673" cy="49.532" r="3.7461" gradientTransform="matrix(0.8466 0 0 1 6.2802 0)" gradientUnits="userSpaceOnUse">
			<stop  offset="0" style="stop-color:#216A7D;stop-opacity:0"/>
			<stop  offset="0.2153" style="stop-color:#216A7D;stop-opacity:0.6"/>
			<stop  offset="0.5" style="stop-color:#216A7D;stop-opacity:0.95"/>
			<stop  offset="0.8861" style="stop-color:#216A7D;stop-opacity:0.65"/>
		</radialGradient>
		<rect x="10.2" y="46.5" class="st2" width="6.2" height="6.2"/>
		<path class="st3" d="M15.9,52.6h-5.2c-0.3,0-0.5-0.2-0.5-0.5V47c0-0.3,0.2-0.5,0.5-0.5h5.2c0.3,0,0.5,0.2,0.5,0.5v5.2
			C16.4,52.4,16.1,52.6,15.9,52.6z"/>
		<g>
			
				<radialGradient id="SVGID_3_" cx="29.8982" cy="61.157" r="7.0159" gradientTransform="matrix(0.8466 0 0 1 6.2802 0)" gradientUnits="userSpaceOnUse">
				<stop  offset="0" style="stop-color:#000000;stop-opacity:0"/>
				<stop  offset="0.2153" style="stop-color:#000000;stop-opacity:0.6044"/>
				<stop  offset="0.5" style="stop-color:#000000;stop-opacity:0.95"/>
				<stop  offset="0.8861" style="stop-color:#216A7D;stop-opacity:0.65"/>
			</radialGradient>
			
				<radialGradient id="SVGID_4_" cx="29.8982" cy="61.157" r="7.3896" gradientTransform="matrix(0.8466 0 0 1 6.2802 0)" gradientUnits="userSpaceOnUse">
				<stop  offset="0" style="stop-color:#216A7D;stop-opacity:0"/>
				<stop  offset="0.2153" style="stop-color:#216A7D;stop-opacity:0.6"/>
				<stop  offset="0.5" style="stop-color:#216A7D;stop-opacity:0.95"/>
				<stop  offset="0.8861" style="stop-color:#216A7D;stop-opacity:0.65"/>
			</radialGradient>
			<rect x="25.2" y="54.7" class="st4" width="12.8" height="12.8"/>
			<path class="st3" d="M37.5,67.6H25.7c-0.3,0-0.5-0.2-0.5-0.5V55.2c0-0.3,0.2-0.5,0.5-0.5h11.8c0.3,0,0.5,0.2,0.5,0.5v11.8
				C38,67.3,37.8,67.6,37.5,67.6z"/>
		</g>
		<g>
			
				<radialGradient id="SVGID_5_" cx="7.2338" cy="65.282" r="1.8532" gradientTransform="matrix(0.8466 0 0 1 6.2802 0)" gradientUnits="userSpaceOnUse">
				<stop  offset="0" style="stop-color:#000000;stop-opacity:0"/>
				<stop  offset="0.2153" style="stop-color:#000000;stop-opacity:0.6044"/>
				<stop  offset="0.5" style="stop-color:#000000;stop-opacity:0.95"/>
				<stop  offset="0.8861" style="stop-color:#216A7D;stop-opacity:0.65"/>
			</radialGradient>
			
				<radialGradient id="SVGID_6_" cx="7.2338" cy="65.282" r="2.2272" gradientTransform="matrix(0.8466 0 0 1 6.2802 0)" gradientUnits="userSpaceOnUse">
				<stop  offset="0" style="stop-color:#216A7D;stop-opacity:0"/>
				<stop  offset="0.2153" style="stop-color:#216A7D;stop-opacity:0.6"/>
				<stop  offset="0.5" style="stop-color:#216A7D;stop-opacity:0.95"/>
				<stop  offset="0.8861" style="stop-color:#216A7D;stop-opacity:0.65"/>
			</radialGradient>
			<rect x="10.7" y="63.6" class="st5" width="3.4" height="3.4"/>
			<path class="st3" d="M13.6,67h-2.4c-0.3,0-0.5-0.2-0.5-0.5v-2.4c0-0.3,0.2-0.5,0.5-0.5h2.4c0.3,0,0.5,0.2,0.5,0.5v2.4
				C14.1,66.8,13.9,67,13.6,67z"/>
		</g>
		<g>
			
				<radialGradient id="SVGID_7_" cx="14.0247" cy="58.5945" r="1.9618" gradientTransform="matrix(0.8466 0 0 1 6.2802 0)" gradientUnits="userSpaceOnUse">
				<stop  offset="0" style="stop-color:#000000;stop-opacity:0"/>
				<stop  offset="0.2153" style="stop-color:#000000;stop-opacity:0.6044"/>
				<stop  offset="0.5" style="stop-color:#000000;stop-opacity:0.95"/>
				<stop  offset="0.8861" style="stop-color:#3091AB;stop-opacity:0.65"/>
			</radialGradient>
			
				<radialGradient id="SVGID_8_" cx="14.0247" cy="58.5945" r="2.3357" gradientTransform="matrix(0.8466 0 0 1 6.2802 0)" gradientUnits="userSpaceOnUse">
				<stop  offset="0" style="stop-color:#216A7D;stop-opacity:0"/>
				<stop  offset="0.2153" style="stop-color:#216A7D;stop-opacity:0.6"/>
				<stop  offset="0.5" style="stop-color:#216A7D;stop-opacity:0.95"/>
				<stop  offset="0.8861" style="stop-color:#216A7D;stop-opacity:0.65"/>
			</radialGradient>
			<rect x="16.4" y="56.8" class="st6" width="3.6" height="3.6"/>
			<path class="st7" d="M19.4,60.4h-2.6c-0.3,0-0.5-0.2-0.5-0.5v-2.6c0-0.3,0.2-0.5,0.5-0.5h2.6c0.3,0,0.5,0.2,0.5,0.5v2.6
				C19.9,60.2,19.7,60.4,19.4,60.4z"/>
		</g>
		<g>
			
				<radialGradient id="SVGID_9_" cx="21.7764" cy="70.2195" r="6.8159" gradientTransform="matrix(0.8466 0 0 1 6.2802 0)" gradientUnits="userSpaceOnUse">
				<stop  offset="0" style="stop-color:#000000;stop-opacity:0"/>
				<stop  offset="0.2153" style="stop-color:#000000;stop-opacity:0.6044"/>
				<stop  offset="0.5" style="stop-color:#000000;stop-opacity:0.95"/>
				<stop  offset="0.8861" style="stop-color:#3091AB;stop-opacity:0.65"/>
			</radialGradient>
			
				<radialGradient id="SVGID_10_" cx="21.7764" cy="70.2195" r="7.1897" gradientTransform="matrix(0.8466 0 0 1 6.2802 0)" gradientUnits="userSpaceOnUse">
				<stop  offset="0" style="stop-color:#216A7D;stop-opacity:0"/>
				<stop  offset="0.2153" style="stop-color:#216A7D;stop-opacity:0.6"/>
				<stop  offset="0.5" style="stop-color:#216A7D;stop-opacity:0.95"/>
				<stop  offset="0.8861" style="stop-color:#216A7D;stop-opacity:0.65"/>
			</radialGradient>
			<rect x="18.5" y="64" class="st8" width="12.5" height="12.5"/>
			<path class="st7" d="M30.4,76.4H19c-0.3,0-0.5-0.2-0.5-0.5V64.5c0-0.3,0.2-0.5,0.5-0.5h11.5c0.3,0,0.5,0.2,0.5,0.5v11.5
				C30.9,76.2,30.7,76.4,30.4,76.4z"/>
		</g>
		<g>
			<linearGradient id="SVGID_11_" gradientUnits="userSpaceOnUse" x1="29.3287" y1="76.2636" x2="75.6685" y2="76.2636">
				<stop  offset="0" style="stop-color:#216A7D"/>
				<stop  offset="1" style="stop-color:#3091AB"/>
			</linearGradient>
			<path class="st9" d="M42.9,90.6l-3.7,11.1h-9.9l18.3-50.9h9.8l18.3,50.9H65.3L52.7,63.8l-0.6-2.6L51.5,64l-6,18.1l-0.4,1.2l0.6,0
				h5.3c1,0,4.8,0,4.8,0l0.6,2.4l0.7,2.4c0,0,0.5,1.7,0.8,2.4H42.9z"/>
		</g>
		<g>
			<path class="st21" d="M89.2,101.7c-2,0-3.8-0.3-5.4-0.8c-1.6-0.6-3-1.4-4.1-2.5c-1.1-1.1-2-2.5-2.6-4.1c-0.6-1.6-0.9-3.5-0.9-5.6
				v-20h6.2v20.7c0,1.2,0.2,2.3,0.5,3.3c0.3,1,0.8,1.8,1.4,2.4c0.6,0.7,1.3,1.2,2.1,1.5c0.8,0.4,1.7,0.5,2.7,0.5
				c1,0,1.8-0.2,2.7-0.5c0.8-0.4,1.5-0.9,2.1-1.5c0.6-0.7,1.1-1.5,1.4-2.4c0.3-1,0.5-2,0.5-3.3V68.7h6.2v20c0,2-0.3,3.7-0.9,5.3
				c-0.6,1.6-1.4,3-2.6,4.1c-1.1,1.1-2.5,2-4.1,2.6C93,101.4,91.2,101.7,89.2,101.7z"/>
			<path class="st21" d="M108.6,68.7h6.4v27.8h11.7v4.6h-18.1V68.7z"/>
			<path class="st21" d="M149.3,94.6h-11.4l-2.2,6.5h-6.9l11.8-31.7h6l11.9,31.7h-6.9L149.3,94.6z M139.6,89.3h7.9l-4-11.9
				L139.6,89.3z"/>
		</g>
		<g>
			<path id="XMLID_60_" class="st10" d="M196.3,100.5c-20.9,0-37.8-16.9-37.8-37.8c0-20.9,16.9-37.8,37.8-37.8
				c18.3,0,33.5,13,37,30.2h5.1c-3.6-20-21.1-35.3-42.1-35.3c-23.6,0-42.8,19.2-42.8,42.8c0,23.6,19.2,42.8,42.8,42.8
				c21.4,0,39.1-15.7,42.3-36.1h-5.1C230.4,87,214.9,100.5,196.3,100.5z"/>
			<circle id="XMLID_59_" class="st11" cx="196.3" cy="62.7" r="30"/>
			<g id="XMLID_46_">
				<path id="XMLID_57_" class="st11" d="M169.6,84.6c0.5-0.4,0.5-0.4,0.4-0.7c0-0.1-0.1-0.2-0.1-0.2c0,0,0-0.1,0-0.1
					c0,0,0.1,0,0.1,0.1c0.2,0.3,0.5,0.7,0.5,0.7c0,0,0.3,0.4,0.5,0.6c0,0.1,0.1,0.1,0,0.1c0,0-0.1,0-0.1,0c0,0-0.1-0.1-0.1-0.1
					c-0.2-0.1-0.3-0.1-0.5,0c-0.2,0.1-0.4,0.3-0.6,0.5l-0.7,0.5c-0.3,0.2-0.3,0.2-0.4,0.2c-0.5-0.2-1-0.7-1.2-1.1
					c-0.3-0.5-0.9-1.4-0.8-2.5c0-0.6,0.4-1.4,1.2-2c1-0.7,2-0.8,2.8-0.5c0.7,0.3,1.2,0.9,1.6,1.3c0.3,0.4,0.5,0.9,0.6,1
					c0.1,0.2,0.2,0.4,0.3,0.5c0,0.1,0,0.1,0,0.1c-0.1,0.1-0.3,0.1-0.9,0.6c-0.1,0.1-0.1,0.1-0.2,0c0,0,0-0.1,0.1-0.1
					c0.1-0.1,0.2-0.2,0.3-0.4c0.1-0.3,0-1-0.6-1.8c-0.3-0.4-0.7-0.8-1.4-1c-0.5-0.1-1.3,0-2,0.5c-0.9,0.6-1.2,1.5-1.2,1.9
					c-0.1,0.8,0.1,1.5,0.5,2.1c0.2,0.2,0.4,0.5,0.6,0.6c0.1,0,0.2,0,0.3,0L169.6,84.6z"/>
				<path id="XMLID_54_" class="st11" d="M180.6,92.3c0.4-0.9,0.5-1.1,0.6-1.3c0.1-0.2,0.1-0.3-0.1-0.4c0,0-0.1-0.1-0.2-0.1
					c0,0,0,0,0-0.1c0,0,0,0,0.1,0c0.3,0.1,0.7,0.3,0.7,0.3c0.1,0,0.6,0.3,0.8,0.3c0.4,0.2,0.8,0.4,1,0.8c0.1,0.2,0.2,0.6,0,1
					c-0.2,0.4-0.6,0.8-1.4,1c0.2,0.8,0.4,1.6,0.5,2.1c0.2,0.5,0.3,0.6,0.5,0.7c0.1,0.1,0.2,0.1,0.2,0.1c0,0,0,0.1,0,0.1
					c0,0-0.1,0-0.2,0l-0.4-0.2c-0.3-0.2-0.5-0.3-0.6-0.4c-0.2-0.3-0.3-0.6-0.4-1.2c-0.1-0.4-0.2-0.9-0.2-1.2c0,0,0-0.1-0.1-0.1
					l-0.8-0.4c0,0,0,0-0.1,0l-0.1,0.1c-0.3,0.6-0.5,1-0.6,1.3c-0.1,0.2-0.1,0.3,0.1,0.4c0.1,0.1,0.2,0.1,0.3,0.2c0,0,0,0.1,0,0.1
					c0,0,0,0-0.1,0c-0.3-0.2-0.7-0.4-0.7-0.4c0,0-0.4-0.2-0.6-0.3c-0.1,0-0.1-0.1-0.1-0.1c0,0,0,0,0.1,0c0.1,0,0.1,0,0.2,0.1
					c0.1,0,0.2-0.1,0.3-0.2c0.1-0.2,0.4-0.7,0.6-1.2L180.6,92.3z M180.9,93C180.9,93.1,180.9,93.1,180.9,93c0.1,0.2,0.4,0.4,0.6,0.5
					c0.1,0.1,0.3,0.1,0.5,0.1c0.3,0,0.6-0.3,0.8-0.7c0.3-0.7,0.2-1.3-0.5-1.6c-0.2-0.1-0.4-0.2-0.4-0.2c0,0-0.1,0-0.1,0L180.9,93z"
					/>
				<path id="XMLID_52_" class="st11" d="M195.2,96.2c0-1,0-1.2,0-1.4c0-0.2-0.1-0.3-0.3-0.3c-0.1,0-0.2,0-0.2,0c0,0-0.1,0-0.1-0.1
					c0,0,0-0.1,0.1-0.1c0.3,0,0.7,0,0.8,0c0.1,0,0.5,0,0.7,0c0.1,0,0.1,0,0.1,0c0,0,0,0.1-0.1,0.1c0,0-0.1,0-0.2,0
					c-0.2,0-0.2,0.1-0.2,0.4c0,0.2,0,0.4,0,1.4l0,0.9c0,0.9,0.2,1.3,0.5,1.6c0.3,0.3,0.6,0.3,1,0.3c0.4,0,0.8-0.2,1-0.5
					c0.3-0.4,0.4-0.9,0.3-1.6l0-0.8c0-1,0-1.2-0.1-1.4c0-0.2-0.1-0.3-0.3-0.3c-0.1,0-0.2,0-0.2,0c0,0-0.1,0-0.1-0.1
					c0,0,0-0.1,0.1-0.1c0.3,0,0.7,0,0.7,0c0,0,0.4,0,0.6,0c0.1,0,0.1,0,0.1,0.1c0,0,0,0.1-0.1,0.1c0,0-0.1,0-0.2,0
					c-0.2,0-0.2,0.1-0.2,0.4c0,0.2,0,0.4,0,1.4l0,0.7c0,0.7-0.1,1.5-0.6,1.9c-0.5,0.4-1,0.5-1.4,0.5c-0.2,0-0.9,0-1.4-0.4
					c-0.3-0.3-0.6-0.7-0.6-1.7L195.2,96.2z"/>
				<path id="XMLID_50_" class="st11" d="M211,92.8c-0.5-0.9-0.6-1-0.7-1.2c-0.1-0.2-0.2-0.3-0.4-0.2c-0.1,0-0.2,0.1-0.2,0.1
					c0,0-0.1,0-0.1,0c0,0,0-0.1,0.1-0.1c0.3-0.1,0.6-0.3,0.7-0.3c0.1-0.1,0.6-0.3,0.8-0.5c0.8-0.4,1.1-0.3,1.3-0.3
					c0.2,0.1,0.5,0.2,0.7,0.5c0.4,0.8,0.1,1.7-0.8,2.2c0,0-0.1,0.1-0.2,0.1c0,0-0.1,0-0.1,0c0-0.1,0-0.1,0.1-0.1
					c0.6-0.3,0.9-1,0.6-1.5c-0.1-0.2-0.3-0.5-0.8-0.7c-0.5-0.1-0.8,0.1-0.9,0.2c-0.1,0.1-0.3,0.2-0.3,0.2c0,0,0,0.1,0,0.1l1.2,2.3
					c0.3,0.5,0.5,1,0.7,1.2c0.1,0.2,0.2,0.2,0.4,0.2c0.1,0,0.2-0.1,0.3-0.1c0,0,0.1,0,0.1,0c0,0,0,0.1-0.1,0.1
					c-0.3,0.2-0.7,0.4-0.7,0.4c0,0-0.4,0.2-0.6,0.3c-0.1,0-0.1,0-0.1,0c0,0,0-0.1,0-0.1c0.1,0,0.1-0.1,0.2-0.1
					c0.1-0.1,0.1-0.2,0-0.4c-0.1-0.2-0.3-0.7-0.6-1.2L211,92.8z"/>
				<path id="XMLID_47_" class="st11" d="M222.1,80.9c0.9-1.2,2.3-1.6,3.5-0.8c1.2,0.8,1.5,2.4,0.6,3.7c-1,1.5-2.6,1.3-3.6,0.7
					C221.8,83.9,221,82.4,222.1,80.9z M226.1,83.5c0.3-0.5,0.8-1.6-0.7-2.7c-1.3-0.9-2.5-0.6-3.1,0.3c-0.6,0.9-0.5,2,0.6,2.8
					C224.1,84.7,225.4,84.5,226.1,83.5z"/>
			</g>
			<g id="XMLID_39_">
				<path id="XMLID_43_" class="st12" d="M177.1,60.2c0-5.6,0-6.6-0.1-7.8c-0.1-1.2-0.4-1.8-1.5-2c-0.3-0.1-0.9-0.1-1.2-0.1
					c-0.1,0-0.3-0.1-0.3-0.2c0-0.2,0.2-0.3,0.6-0.3c1.6,0,3.9,0.1,4.1,0.1c0.4,0,3.1-0.1,4.2-0.1c2.3,0,4.7,0.2,6.6,1.6
					c0.9,0.6,2.5,2.4,2.5,4.9c0,2.7-1.1,5.3-4.3,8.3c2.9,3.8,5.4,7,7.5,9.2c1.9,2,3.5,2.4,4.4,2.6c0.7,0.1,11.7,0.1,12,0.1
					c0.2,0,0.3,0.1,0.3,0.2c0,0.2-0.2,0.3-0.9,0.3h-13.1c-2,0-2.9-0.2-3.8-0.7c-1.5-0.8-2.8-2.6-4.8-5.3c-1.5-2-3.2-4.4-3.9-5.3
					c-0.1-0.1-0.3-0.2-0.5-0.2l-4.4-0.1c-0.2,0-0.3,0.1-0.3,0.3v0.9c0,3.4,0,6.3,0.2,7.8c0.1,1,0.3,1.8,1.4,2
					c0.5,0.1,1.3,0.1,1.6,0.1c0.2,0,0.3,0.1,0.3,0.2c0,0.2-0.2,0.3-0.6,0.3c-2,0-4.2-0.1-4.4-0.1c0,0-2.3,0.1-3.4,0.1
					c-0.4,0-0.6-0.1-0.6-0.3c0-0.1,0.1-0.2,0.3-0.2c0.3,0,0.8-0.1,1.1-0.1c0.7-0.1,0.9-0.9,1-2c0.2-1.5,0.2-4.3,0.2-7.8V60.2z
					 M180,63.3c0,0.2,0.1,0.3,0.3,0.4c0.5,0.3,2.2,0.6,3.8,0.6c0.9,0,1.9-0.1,2.7-0.7c1.3-0.9,2.2-2.8,2.2-5.5
					c0-4.5-2.4-7.2-6.2-7.2c-1.1,0-2,0.1-2.4,0.2c-0.2,0.1-0.3,0.2-0.3,0.4V63.3z"/>
				<path id="XMLID_40_" class="st12" d="M207.1,47.7c7.3,0,12.7,4.6,12.7,12.1c0,7.2-5.1,13.2-12.9,13.2c-8.8,0-12.5-6.9-12.5-12.7
					C194.4,55.1,198.2,47.7,207.1,47.7z M207.8,71.8c2.9,0,8.9-1.7,8.9-11.1c0-7.7-4.7-11.9-9.8-11.9c-5.4,0-9.4,3.5-9.4,10.6
					C197.4,66.9,202,71.8,207.8,71.8z"/>
			</g>
			<path id="XMLID_38_" class="st10" d="M234,65.7h5c0-0.2,0-0.4,0-0.6h-5C234,65.3,234,65.5,234,65.7z"/>
			<path id="XMLID_37_" class="st10" d="M234.1,63.6h5c0-0.2,0-0.4,0-0.6h-5C234.1,63.2,234.1,63.4,234.1,63.6z"/>
			<path id="XMLID_36_" class="st10" d="M233.8,67.8h5.1c0-0.2,0.1-0.4,0.1-0.6h-5.1C233.8,67.4,233.8,67.6,233.8,67.8z"/>
			<g>
				<path class="st22" d="M152.7,53.2c-0.2,0.1-0.4,0.1-0.6,0.1c0.4,0.5,0.5,1.1,0.4,1.8c-0.1,0.6-0.4,1.1-0.9,1.5s-1,0.5-1.5,0.4
					c-0.7-0.1-1.2-0.5-1.4-1.1s-0.3-1.4-0.1-2.3l0.1-0.8l-0.4-0.1c-0.3-0.1-0.6,0-0.8,0.1c-0.2,0.1-0.3,0.3-0.4,0.7
					c-0.1,0.3,0,0.5,0.1,0.7c0.1,0.2,0.3,0.3,0.5,0.4l-0.3,1.7c-0.4-0.1-0.7-0.3-1-0.5c-0.3-0.3-0.5-0.7-0.6-1.1
					c-0.1-0.5-0.1-1,0-1.5c0.1-0.8,0.5-1.4,1-1.8c0.5-0.4,1.1-0.5,1.8-0.4l2.8,0.5c0.6,0.1,1.1,0.1,1.4,0l0.1,0L152.7,53.2z
					 M151.2,54.4c0-0.3,0-0.5,0-0.7c-0.1-0.2-0.2-0.4-0.4-0.6l-1.1-0.2l-0.1,0.6c-0.2,0.9,0.1,1.4,0.6,1.6l0.1,0
					c0.2,0,0.4,0,0.6-0.1S151.1,54.7,151.2,54.4z"/>
				<path class="st22" d="M155,44c0.3,0.6,0.3,1.3,0,2c-0.3,0.7-0.7,1.1-1.2,1.3c-0.5,0.2-1.1,0.1-1.9-0.2l-4-1.7l0.7-1.6l3.9,1.7
					c0.6,0.3,1.1,0.1,1.3-0.5c0.2-0.6,0.2-1-0.1-1.4l-4.3-1.8l0.7-1.6l6.1,2.6l-0.6,1.5L155,44z"/>
				<path class="st22" d="M152,36.9l0.7,0.4c-0.3-0.7-0.2-1.4,0.2-2.1c0.4-0.6,0.8-0.9,1.3-1c0.5-0.1,1.1,0.1,1.8,0.5l3.6,2.2
					l-0.9,1.5l-3.6-2.2c-0.3-0.2-0.6-0.3-0.8-0.2c-0.2,0.1-0.4,0.2-0.6,0.6c-0.3,0.4-0.3,0.9,0,1.3l4,2.4l-0.9,1.5l-5.6-3.5
					L152,36.9z"/>
				<path class="st22" d="M163.5,29.9c0.3-0.3,0.4-0.6,0.5-1c0-0.3-0.1-0.7-0.4-0.9l1.5-1.5c0.4,0.4,0.7,0.9,0.8,1.4
					s0.1,1.1-0.1,1.7c-0.2,0.6-0.5,1.1-1,1.5c-0.8,0.9-1.8,1.3-2.8,1.2c-1,0-2-0.5-3-1.5l-0.1-0.1c-0.9-0.9-1.4-1.9-1.5-2.9
					c-0.1-1,0.3-2,1.2-2.8c0.7-0.8,1.6-1.1,2.4-1.2s1.7,0.3,2.4,1l-1.5,1.5c-0.3-0.3-0.7-0.5-1-0.5s-0.7,0.1-1,0.4
					c-0.4,0.4-0.5,0.8-0.4,1.3c0.1,0.5,0.4,1,1,1.6l0.2,0.2c0.6,0.6,1.2,1,1.6,1C162.7,30.5,163.2,30.3,163.5,29.9z"/>
				<path class="st22" d="M170,26.6l-1.8,1.4l-7.3-9.5l1.8-1.4L170,26.6z"/>
				<path class="st22" d="M165.6,16.7c-0.2-0.3-0.2-0.6-0.2-0.9c0.1-0.3,0.3-0.6,0.6-0.8c0.3-0.2,0.6-0.3,1-0.2
					c0.3,0.1,0.6,0.2,0.7,0.5c0.2,0.3,0.2,0.6,0.2,0.9c-0.1,0.3-0.3,0.6-0.6,0.8c-0.3,0.2-0.6,0.3-1,0.2S165.7,17,165.6,16.7z
					 M173.3,24.4l-1.9,1.2l-4.5-7.1l1.9-1.2L173.3,24.4z"/>
				<path class="st22" d="M177.1,20.5c0.4-0.2,0.6-0.4,0.8-0.7c0.1-0.3,0.1-0.7,0-1l1.9-0.9c0.2,0.5,0.3,1.1,0.2,1.6
					s-0.3,1.1-0.7,1.5s-0.9,0.8-1.4,1.1c-1.1,0.5-2.1,0.6-3.1,0.2s-1.7-1.2-2.3-2.5l-0.1-0.1c-0.5-1.2-0.7-2.3-0.4-3.3
					c0.3-1,1-1.7,2.1-2.3c1-0.4,1.9-0.5,2.7-0.2c0.8,0.3,1.5,0.9,1.9,1.8l-1.9,0.9c-0.2-0.4-0.5-0.7-0.8-0.8
					c-0.4-0.1-0.7-0.1-1.1,0.1c-0.5,0.2-0.8,0.6-0.8,1c-0.1,0.5,0.1,1.1,0.4,1.9l0.1,0.2c0.4,0.8,0.7,1.3,1.1,1.5
					C176.2,20.7,176.6,20.7,177.1,20.5z"/>
				<path class="st22" d="M184,16.2l-0.6,1l0.6,2.5l-2.2,0.6l-3-11.6l2.2-0.6l1.7,6.4l0.3-0.7l1.5-3l2.6-0.7l-2.1,4.2l4.4,3.9
					l-2.5,0.6L184,16.2z"/>
				<path class="st22" d="M192.3,14.7c0-1,0.2-1.9,0.6-2.5c0.5-0.6,1.1-0.9,1.9-1c0.6,0,1.2,0.2,1.6,0.7l-0.1-3.4l1.8,0l0.2,9.4
					l-1.6,0l-0.1-0.7c-0.4,0.6-1,0.8-1.7,0.9c-0.8,0-1.4-0.3-1.9-0.9S192.3,15.8,192.3,14.7z M194.1,14.8c0,0.6,0.1,1.1,0.4,1.4
					c0.2,0.3,0.5,0.5,1,0.5c0.5,0,0.9-0.2,1.1-0.7l0-2.6c-0.2-0.5-0.6-0.7-1.2-0.7C194.5,12.7,194,13.4,194.1,14.8z"/>
				<path class="st22" d="M202.4,18.5c-1-0.1-1.7-0.5-2.2-1.2c-0.5-0.7-0.7-1.5-0.6-2.5l0-0.2c0.1-0.7,0.3-1.2,0.6-1.7
					c0.3-0.5,0.7-0.8,1.2-1.1c0.5-0.2,1.1-0.3,1.7-0.2c0.9,0.1,1.6,0.5,2,1.1s0.6,1.5,0.5,2.5l-0.1,0.7l-4.2-0.5
					c0,0.4,0.1,0.8,0.4,1.1c0.3,0.3,0.6,0.5,1,0.5c0.7,0.1,1.2-0.1,1.7-0.5l0.7,1.1c-0.3,0.3-0.7,0.6-1.2,0.7
					C203.4,18.5,202.9,18.6,202.4,18.5z M202.9,13.1c-0.3,0-0.6,0-0.9,0.2s-0.4,0.5-0.5,1l2.4,0.3l0-0.1c0-0.4,0-0.7-0.2-0.9
					S203.2,13.1,202.9,13.1z"/>
				<path class="st22" d="M209.5,16.3c0.3-1,0.8-1.7,1.5-2.1s1.3-0.5,2.1-0.2c0.6,0.2,1,0.6,1.3,1.2l1.1-3.2l1.7,0.6l-3.2,8.8
					l-1.5-0.5l0.2-0.7c-0.6,0.4-1.2,0.4-1.9,0.2c-0.7-0.3-1.2-0.8-1.5-1.5C209.1,18.3,209.2,17.4,209.5,16.3z M211.1,17.1
					c-0.2,0.6-0.3,1.1-0.2,1.5c0.1,0.4,0.3,0.6,0.7,0.8c0.5,0.2,1,0.1,1.3-0.3l0.9-2.5c-0.1-0.5-0.3-0.9-0.8-1
					C212.2,15.2,211.6,15.7,211.1,17.1z"/>
				<path class="st22" d="M216.7,22.9l-1.6-0.8l2.9-5.9l1.6,0.8L216.7,22.9z M218.7,14.6c0.1-0.2,0.3-0.4,0.5-0.5s0.5,0,0.8,0.1
					c0.3,0.1,0.5,0.3,0.5,0.5s0.1,0.5,0,0.7c-0.1,0.2-0.3,0.4-0.5,0.5c-0.2,0.1-0.5,0-0.8-0.1c-0.3-0.1-0.4-0.3-0.5-0.5
					C218.5,15,218.5,14.8,218.7,14.6z"/>
				<path class="st22" d="M221.8,23.7c0.1-0.2,0.1-0.4,0-0.6c-0.1-0.2-0.3-0.5-0.7-0.8c-1.2-1.1-1.5-2.1-0.9-3
					c0.3-0.5,0.8-0.8,1.4-0.9c0.6-0.1,1.3,0.1,1.9,0.5c0.7,0.4,1.2,1,1.4,1.6c0.2,0.6,0.2,1.2-0.2,1.7l-1.5-0.9
					c0.1-0.2,0.2-0.4,0.1-0.7c-0.1-0.2-0.2-0.4-0.5-0.6c-0.3-0.2-0.5-0.2-0.7-0.2c-0.2,0-0.4,0.1-0.5,0.3c-0.1,0.2-0.1,0.3,0,0.5
					s0.3,0.5,0.6,0.8c0.3,0.3,0.6,0.6,0.8,0.8c0.6,0.8,0.7,1.5,0.2,2.3c-0.3,0.5-0.8,0.8-1.4,0.8s-1.3-0.2-2-0.6
					c-0.5-0.3-0.8-0.6-1.1-1c-0.3-0.4-0.4-0.8-0.4-1.2s0.1-0.8,0.3-1.1l1.4,0.9c-0.2,0.3-0.2,0.5-0.1,0.8c0.1,0.3,0.3,0.5,0.6,0.7
					c0.3,0.2,0.5,0.3,0.8,0.2C221.5,24,221.7,23.9,221.8,23.7z"/>
				<path class="st22" d="M229.8,21.6l-1,1.3l0.9,0.7l-0.8,1l-0.9-0.7l-2.1,2.6c-0.2,0.2-0.2,0.4-0.2,0.5c0,0.1,0.1,0.3,0.3,0.5
					c0.2,0.1,0.3,0.2,0.4,0.3l-0.8,1c-0.3-0.1-0.6-0.3-0.9-0.5c-1-0.8-1.1-1.7-0.3-2.6l2.2-2.8l-0.8-0.6l0.8-1l0.8,0.6l1-1.3
					L229.8,21.6z"/>
				<path class="st22" d="M228.8,31.9c0.1-0.2,0.2-0.4,0.3-0.5c-0.6,0-1.2-0.2-1.7-0.7c-0.5-0.5-0.7-1-0.7-1.5
					c0-0.6,0.2-1.1,0.6-1.5c0.5-0.5,1.1-0.7,1.7-0.6c0.6,0.1,1.3,0.5,2,1.2l0.6,0.6l0.3-0.3c0.2-0.2,0.3-0.4,0.4-0.7
					c0-0.2-0.1-0.5-0.3-0.7c-0.2-0.2-0.4-0.3-0.6-0.3c-0.2,0-0.4,0.1-0.6,0.2l-1.2-1.3c0.3-0.3,0.6-0.4,1-0.5c0.4-0.1,0.8,0,1.3,0.2
					c0.4,0.2,0.8,0.5,1.2,0.8c0.6,0.6,0.9,1.2,0.9,1.8s-0.2,1.2-0.7,1.7l-2,2c-0.4,0.4-0.7,0.8-0.8,1.2l-0.1,0.1L228.8,31.9z
					 M228.6,30c0.2,0.2,0.4,0.3,0.6,0.4c0.2,0.1,0.5,0.1,0.7,0l0.8-0.8l-0.5-0.5c-0.6-0.6-1.2-0.7-1.6-0.4l-0.1,0.1
					c-0.2,0.2-0.2,0.3-0.2,0.5C228.4,29.6,228.5,29.8,228.6,30z"/>
				<path class="st22" d="M236.9,31.2l-0.6,0.5c0.8,0,1.4,0.4,1.8,1c0.4,0.6,0.6,1.1,0.4,1.6c-0.1,0.5-0.5,1-1.2,1.5l-3.4,2.5
					l-1.1-1.4l3.4-2.5c0.3-0.2,0.5-0.5,0.5-0.7c0-0.2-0.1-0.5-0.3-0.8c-0.3-0.4-0.7-0.6-1.2-0.5l-3.8,2.8l-1.1-1.4l5.3-3.9
					L236.9,31.2z"/>
				<path class="st22" d="M236.9,41.1c0.2,0.3,0.4,0.5,0.6,0.6c0.3,0.1,0.5,0.1,0.8-0.1l0.8,1.5c-0.4,0.2-0.8,0.3-1.3,0.3
					c-0.4,0-0.9-0.2-1.2-0.5c-0.4-0.3-0.7-0.6-0.9-1.1c-0.4-0.8-0.5-1.6-0.3-2.4c0.3-0.8,0.9-1.4,1.8-1.9l0.1-0.1
					c0.9-0.5,1.7-0.6,2.5-0.4c0.8,0.2,1.4,0.7,1.9,1.5c0.4,0.7,0.5,1.4,0.3,2.1c-0.2,0.7-0.6,1.2-1.3,1.6l-0.8-1.5
					c0.3-0.2,0.5-0.4,0.6-0.7c0.1-0.3,0.1-0.6-0.1-0.9c-0.2-0.4-0.5-0.6-0.8-0.6c-0.4,0-0.8,0.1-1.4,0.4l-0.2,0.1
					c-0.6,0.3-1,0.6-1.1,1S236.7,40.7,236.9,41.1z"/>
				<path class="st22" d="M238,46.6l-0.7-1.6l6.1-2.5l0.7,1.6L238,46.6z M245,41.7c0.2-0.1,0.5-0.1,0.7,0s0.4,0.3,0.5,0.6
					c0.1,0.3,0.1,0.5,0,0.8s-0.3,0.4-0.5,0.5c-0.2,0.1-0.5,0.1-0.7,0c-0.2-0.1-0.4-0.3-0.5-0.6s-0.1-0.5,0-0.8
					C244.6,42,244.8,41.8,245,41.7z"/>
				<path class="st22" d="M239.6,51.4c0.1-0.1,0.3-0.2,0.5-0.3c-0.6-0.3-1-0.7-1.1-1.4c-0.2-0.6-0.1-1.2,0.1-1.7
					c0.2-0.5,0.6-0.8,1.2-1c0.7-0.2,1.3-0.1,1.8,0.3s0.9,1.1,1.2,2l0.2,0.8l0.4-0.1c0.3-0.1,0.5-0.2,0.6-0.4
					c0.1-0.2,0.2-0.5,0.1-0.8c-0.1-0.3-0.2-0.5-0.4-0.6s-0.4-0.2-0.6-0.1l-0.5-1.7c0.4-0.1,0.7-0.1,1.1,0c0.4,0.1,0.7,0.4,1,0.8
					s0.5,0.8,0.7,1.3c0.2,0.8,0.2,1.5-0.1,2c-0.3,0.6-0.7,1-1.5,1.2l-2.8,0.8c-0.6,0.2-1,0.4-1.3,0.6l-0.1,0L239.6,51.4z
					 M240.4,49.7c0.1,0.3,0.2,0.5,0.4,0.6c0.2,0.2,0.4,0.3,0.6,0.3l1.1-0.3l-0.2-0.6c-0.2-0.9-0.7-1.2-1.3-1.1l-0.1,0
					c-0.2,0.1-0.4,0.2-0.5,0.4C240.3,49.2,240.3,49.4,240.4,49.7z"/>
			</g>
			<path id="XMLID_33_" class="st10" d="M234.1,61.5h5c0-0.2,0-0.4,0-0.6h-5C234.1,61,234.1,61.3,234.1,61.5z"/>
			<path id="XMLID_32_" class="st10" d="M233.6,56.6c0,0.2,0.1,0.4,0.1,0.6h5c0-0.2,0-0.4-0.1-0.6H233.6z"/>
			<path id="XMLID_31_" class="st10" d="M234,59.3h5c0-0.2,0-0.4-0.1-0.6h-5C234,58.9,234,59.1,234,59.3z"/>
			<path id="SVGID_x5F_12_x5F_" class="st23" d="M232.4,79.8h5.1c-3.2,20.5-20.9,36.1-42.3,36.1c-23.6,0-42.8-19.2-42.8-42.8
				c0-23.6,19.2-42.8,42.8-42.8c21.1,0,38.6,15.2,42.1,35.3h-5.1c-3.5-17.3-18.8-30.2-37-30.2c-20.9,0-37.8,16.9-37.8,37.8
				c0,20.9,16.9,37.8,37.8,37.8C213.8,110.9,229.3,97.5,232.4,79.8z"/>
			<text>			<textPath  xlink:href="#SVGID_x5F_12_x5F_" startOffset="0.5208%">
			</textPath>
</text>
		</g>
		<g>
			<path class="st13" d="M242,83.5c-0.5-0.5-1-0.8-1.4-0.8c-0.7,0-1,0.9-1.1,1.3l-2.5,9l-15.7-32.6l32.5,12.6l-0.5,0.2
				c-0.1,0-6.5,3.1-7.9,3.9c-0.4,0.2-0.6,0.5-0.6,0.7c0,0.3,0.2,0.6,0.2,0.6l11.9,7.9l-5.7,7.1L242,83.5z"/>
			<path class="st14" d="M221.8,60.8L253.2,73c0,0-6.5,3.1-7.9,3.9c-1.4,0.8-0.5,1.7-0.5,1.7l11.7,7.8l-2.7,3.4l-2.6,3.3l-9-9.7
				c-0.6-0.7-1.2-0.9-1.6-0.9c-0.8,0-1.2,0.9-1.3,1.5l-2.4,8.3L221.8,60.8 M220.8,59.9l0.6,1.1l15.2,31.4l0.6,1.2l0.4-1.3l2.4-8.3
				c0.1-0.2,0.3-1.2,0.8-1.2c0.2,0,0.6,0.1,1.2,0.7l9,9.7l0.4,0.4l0.4-0.5l2.6-3.3l2.7-3.4l0.3-0.4l-0.5-0.3l-11.6-7.8
				c0-0.1-0.1-0.2-0.1-0.4c0-0.2,0.2-0.4,0.5-0.5c1.3-0.8,7.8-3.8,7.9-3.8l1.1-0.5l-1.1-0.4L222,60.3L220.8,59.9L220.8,59.9z"/>
		</g>
	</g>
</g>
</svg>
